<?xml version="1.0" encoding="UTF-8" standalone="no"?>
<svg
   xmlns:dc="http://purl.org/dc/elements/1.1/"
   xmlns:cc="http://creativecommons.org/ns#"
   xmlns:rdf="http://www.w3.org/1999/02/22-rdf-syntax-ns#"
   xmlns:svg="http://www.w3.org/2000/svg"
   xmlns="http://www.w3.org/2000/svg"
   xmlns:sodipodi="http://sodipodi.sourceforge.net/DTD/sodipodi-0.dtd"
   xmlns:inkscape="http://www.inkscape.org/namespaces/inkscape"
   data-name="Layer 1"
   height="64"
   id="Layer_1"
   viewBox="0 0 64 64"
   width="64"
   version="1.1"
   sodipodi:docname="icon.svg"
   inkscape:version="0.92.4 5da689c313, 2019-01-14">
  <metadata
     id="metadata932">
    <rdf:RDF>
      <cc:Work
         rdf:about="">
        <dc:format>image/svg+xml</dc:format>
        <dc:type
           rdf:resource="http://purl.org/dc/dcmitype/StillImage" />
      </cc:Work>
    </rdf:RDF>
  </metadata>
  <sodipodi:namedview
     pagecolor="#ffffff"
     bordercolor="#666666"
     borderopacity="1"
     objecttolerance="10"
     gridtolerance="10"
     guidetolerance="10"
     inkscape:pageopacity="0"
     inkscape:pageshadow="2"
     inkscape:window-width="2560"
     inkscape:window-height="1343"
     id="namedview930"
     showgrid="false"
     inkscape:zoom="2.2421875"
     inkscape:cx="-49.323242"
     inkscape:cy="25.461536"
     inkscape:window-x="0"
     inkscape:window-y="27"
     inkscape:window-maximized="1"
     inkscape:current-layer="Layer_1" />
  <defs
     id="defs921">
    <style
       id="style919">.cls-1{fill:#99ff9b;}.cls-2{fill:#7acc7a;}</style>
  </defs>
  <title
     id="title923" />
  <path
     class="cls-1"
     d="M59.366,13.069a1,1,0,0,0-1.1.249L31.974,41.56,19.707,29.293a1,1,0,0,0-1.414,0l-14,14A1,1,0,0,0,4,44v6a1,1,0,0,0,1,1H59a1,1,0,0,0,1-1V14A1,1,0,0,0,59.366,13.069Z"
     id="path925"
     style="fill:#f05b4f;fill-opacity:1" />
  <path
     class="cls-2"
     d="M59.366,13.069a1,1,0,0,0-1.1.249L31.974,41.56,41.414,51H59a1,1,0,0,0,1-1V14A1,1,0,0,0,59.366,13.069Z"
     id="path927"
     style="fill:#d70206;fill-opacity:1" />
</svg>
