<?xml version="1.0" ?><svg data-name="Layer 1" height="64" id="Layer_1" viewBox="0 0 64 64" width="64" xmlns="http://www.w3.org/2000/svg"><defs><style>.cls-1{fill:#99ff9b;}.cls-2{fill:#7acc7a;}</style></defs><title/><path class="cls-1" d="M59.366,13.069a1,1,0,0,0-1.1.249L31.974,41.56,19.707,29.293a1,1,0,0,0-1.414,0l-14,14A1,1,0,0,0,4,44v6a1,1,0,0,0,1,1H59a1,1,0,0,0,1-1V14A1,1,0,0,0,59.366,13.069Z"/><path class="cls-2" d="M59.366,13.069a1,1,0,0,0-1.1.249L31.974,41.56,41.414,51H59a1,1,0,0,0,1-1V14A1,1,0,0,0,59.366,13.069Z"/></svg>