<svg xmlns="http://www.w3.org/2000/svg" width="64" height="64" data-name="Layer 1"><circle shape-rendering="geometricPrecision" cx="32" cy="32" r="32" style="display:inline;fill:#b60205;fill-opacity:1;stroke-width:1.01241"/><path d="M48.42 20.641a.6.6 0 0 0-.66.15L31.984 37.736l-7.36-7.36a.6.6 0 0 0-.848 0l-8.4 8.4a.6.6 0 0 0-.176.424v3.6a.6.6 0 0 0 .6.6h32.4a.6.6 0 0 0 .6-.6V21.2a.6.6 0 0 0-.38-.559z" style="fill:#fff;fill-opacity:1;stroke-width:.6"/><path d="M48.42 20.641a.6.6 0 0 0-.66.15L31.984 37.736l5.664 5.664H48.2a.6.6 0 0 0 .6-.6V21.2a.6.6 0 0 0-.38-.559z" style="fill:#fff;fill-opacity:1;stroke-width:.6"/></svg>
